<svg width="101" height="94" viewBox="0 0 101 94" fill="none" xmlns="http://www.w3.org/2000/svg">
<path d="M74.291 0.219681C65.891 0.219681 58.422 4.39811 53.642 10.8827C50.36 8.91982 46.569 7.79203 42.525 7.79203C35.512 7.79203 29.249 11.1649 25.116 16.4532C23.181 15.7508 21.106 15.3644 18.943 15.3644C8.481 15.3644 0 24.2951 0 35.3119C0 46.3287 8.481 55.2595 18.943 55.2595C23.147 55.2595 37.963 55.2595 42.525 55.2595C48.389 55.2595 68.008 55.2595 74.291 55.2595C88.724 55.2595 100.424 42.939 100.424 27.7396C100.424 12.5401 88.724 0.219681 74.291 0.219681Z" fill="white"/>
<path d="M74.291 7.5888C84.842 7.5888 93.426 16.628 93.426 27.7385C93.426 38.849 84.842 47.8883 74.291 47.8883H42.525H18.943C12.357 47.8883 6.998 42.2461 6.998 35.3109C6.998 28.3756 12.356 22.7335 18.943 22.7335C20.27 22.7335 21.58 22.9641 22.836 23.4201L27.431 25.087L30.52 21.136C33.488 17.3388 37.864 15.1611 42.526 15.1611C45.209 15.1611 47.858 15.8972 50.186 17.2893L55.455 20.441L59.171 15.4002C62.83 10.4362 68.341 7.5888 74.291 7.5888ZM74.291 0.219681C65.891 0.219681 58.422 4.39811 53.642 10.8827C50.36 8.91982 46.569 7.79203 42.525 7.79203C35.512 7.79203 29.249 11.1649 25.116 16.4532C23.181 15.7508 21.106 15.3644 18.943 15.3644C8.481 15.3644 0 24.2951 0 35.3119C0 46.3287 8.481 55.2595 18.943 55.2595C23.147 55.2595 37.963 55.2595 42.525 55.2595C48.389 55.2595 68.008 55.2595 74.291 55.2595C88.724 55.2595 100.424 42.939 100.424 27.7396C100.424 12.5401 88.724 0.219681 74.291 0.219681Z" fill="#9E9E9E"/>
<path d="M24.231 80.429C22.878 80.429 21.782 79.2748 21.782 77.8501V62.6938C21.782 61.2691 22.878 60.1149 24.231 60.1149C25.584 60.1149 26.68 61.2701 26.68 62.6938V77.8501C26.681 79.2748 25.584 80.429 24.231 80.429Z" fill="#00B0FF"/>
<path d="M41.552 80.429C40.199 80.429 39.103 79.2748 39.103 77.8501V62.6938C39.103 61.2691 40.2 60.1149 41.552 60.1149C42.904 60.1149 44.001 61.2701 44.001 62.6938V77.8501C44.001 79.2748 42.905 80.429 41.552 80.429Z" fill="#00B0FF"/>
<path d="M58.872 80.429C57.519 80.429 56.423 79.2748 56.423 77.8501V62.6938C56.423 61.2691 57.52 60.1149 58.872 60.1149C60.225 60.1149 61.321 61.2701 61.321 62.6938V77.8501C61.322 79.2748 60.225 80.429 58.872 80.429Z" fill="#00B0FF"/>
<path d="M76.193 80.429C74.84 80.429 73.744 79.2748 73.744 77.8501V62.6938C73.744 61.2691 74.841 60.1149 76.193 60.1149C77.546 60.1149 78.642 61.2701 78.642 62.6938V77.8501C78.642 79.2748 77.546 80.429 76.193 80.429Z" fill="#00B0FF"/>
<path d="M32.891 93.2865C31.538 93.2865 30.442 92.1314 30.442 90.7077V75.5514C30.442 74.1266 31.538 72.9725 32.891 72.9725C34.244 72.9725 35.34 74.1266 35.34 75.5514V90.7077C35.341 92.1314 34.244 93.2865 32.891 93.2865Z" fill="#00B0FF"/>
<path d="M50.212 93.2865C48.859 93.2865 47.763 92.1314 47.763 90.7077V75.5514C47.763 74.1266 48.86 72.9725 50.212 72.9725C51.565 72.9725 52.661 74.1266 52.661 75.5514V90.7077C52.661 92.1314 51.565 93.2865 50.212 93.2865Z" fill="#00B0FF"/>
<path d="M67.533 93.2865C66.18 93.2865 65.084 92.1314 65.084 90.7077V75.5514C65.084 74.1266 66.181 72.9725 67.533 72.9725C68.886 72.9725 69.982 74.1266 69.982 75.5514V90.7077C69.982 92.1314 68.885 93.2865 67.533 93.2865Z" fill="#00B0FF"/>
</svg>
